<?xml version="1.0" encoding="UTF-8"?>
<svg xmlns="http://www.w3.org/2000/svg" viewBox="0 0 124 124">
<rect width="100%" height="100%" fill="#c6c6c6" />
<g fill="#fff">
<path d="M 15.560168,124 C 16.995136,95.281468 37.358869,76.853929 61.99696,76.85193 c 24.638089,-0.002 45.00449,18.422242 46.44287,47.14054 z" />
<path d="m 62.36488,16.763315 c 14.104509,0 29.555303,6.226559 29.555303,22.562864 0,16.336305 -22.574534,46.770646 -30.285063,46.746207 -7.710529,-0.02444 -29.555303,-29.564671 -29.555303,-45.900977 0,-16.336304 16.180554,-23.408094 30.285063,-23.408094 z" />
<g fill="#c6c6c6">
<path d="m 52.851138,44.859936 c 4.86071,3.531514 6.698905,12.049604 5.602736,13.422269 -1.096172,1.372665 -9.811945,2.199211 -14.672655,-1.332303 -4.860709,-3.531512 -6.678048,-14.823804 -6.678048,-14.823804 0,0 10.887256,-0.797675 15.747967,2.733838 z" />
<path d="m 71.14886,44.859936 c -4.860709,3.531514 -6.698904,12.049604 -5.602736,13.422269 1.096173,1.372665 9.811945,2.199211 14.672655,-1.332303 4.860709,-3.531512 6.678049,-14.823804 6.678049,-14.823804 0,0 -10.887256,-0.797675 -15.747968,2.733838 z" />
</g>
</g>
</svg>
